<svg width="24" height="25" viewBox="0 0 24 25" fill="none" xmlns="http://www.w3.org/2000/svg">
<path d="M2.75 7.07143C2.75 6.32821 2.75045 5.81015 2.77938 5.40513C2.80781 5.00729 2.86092 4.7763 2.93773 4.60024C3.16473 4.07997 3.57997 3.66473 4.10024 3.43773C4.2763 3.36092 4.50729 3.30781 4.90513 3.27938C5.31015 3.25045 5.82821 3.25 6.57143 3.25C7.31465 3.25 7.83271 3.25045 8.23773 3.27938C8.63556 3.30781 8.86655 3.36092 9.04261 3.43773C9.56288 3.66473 9.97813 4.07997 10.2051 4.60024C10.2819 4.7763 10.3351 5.00729 10.3635 5.40513C10.3924 5.81015 10.3929 6.32821 10.3929 7.07143C10.3929 7.81465 10.3924 8.33271 10.3635 8.73773C10.3351 9.13556 10.2819 9.36655 10.2051 9.54261C9.97813 10.0629 9.56288 10.4781 9.04261 10.7051C8.86655 10.7819 8.63556 10.8351 8.23773 10.8635C7.83271 10.8924 7.31465 10.8929 6.57143 10.8929C5.82821 10.8929 5.31015 10.8924 4.90513 10.8635C4.50729 10.8351 4.2763 10.7819 4.10024 10.7051C3.57997 10.4781 3.16473 10.0629 2.93773 9.54261C2.86092 9.36655 2.80781 9.13556 2.77938 8.73773C2.75045 8.33271 2.75 7.81465 2.75 7.07143Z" stroke="white" stroke-width="1.5"/>
<path d="M2.75 17.9285C2.75 17.1853 2.75045 16.6673 2.77938 16.2622C2.80781 15.8644 2.86092 15.6334 2.93773 15.4574C3.16473 14.9371 3.57997 14.5218 4.10024 14.2949C4.2763 14.218 4.50729 14.1649 4.90513 14.1365C5.31015 14.1076 5.82821 14.1071 6.57143 14.1071C7.31465 14.1071 7.83271 14.1076 8.23773 14.1365C8.63556 14.1649 8.86655 14.218 9.04261 14.2949C9.56288 14.5218 9.97813 14.9371 10.2051 15.4574C10.2819 15.6334 10.3351 15.8644 10.3635 16.2622C10.3924 16.6673 10.3929 17.1853 10.3929 17.9285C10.3929 18.6718 10.3924 19.1898 10.3635 19.5948C10.3351 19.9927 10.2819 20.2237 10.2051 20.3997C9.97813 20.92 9.56288 21.3352 9.04261 21.5622C8.86655 21.6391 8.63556 21.6922 8.23773 21.7206C7.83271 21.7495 7.31465 21.75 6.57143 21.75C5.82821 21.75 5.31015 21.7495 4.90513 21.7206C4.50729 21.6922 4.2763 21.6391 4.10024 21.5622C3.57997 21.3352 3.16473 20.92 2.93773 20.3997C2.86092 20.2237 2.80781 19.9927 2.77938 19.5948C2.75045 19.1898 2.75 18.6718 2.75 17.9285Z" stroke="white" stroke-width="1.5"/>
<path d="M13.6072 7.07143C13.6072 6.32821 13.6076 5.81015 13.6366 5.40513C13.665 5.00729 13.7181 4.7763 13.7949 4.60024C14.0219 4.07997 14.4372 3.66473 14.9574 3.43773C15.1335 3.36092 15.3645 3.30781 15.7623 3.27938C16.1673 3.25045 16.6854 3.25 17.4286 3.25C18.1718 3.25 18.6899 3.25045 19.0949 3.27938C19.4927 3.30781 19.7237 3.36092 19.8998 3.43773C20.4201 3.66473 20.8353 4.07997 21.0623 4.60024C21.1391 4.7763 21.1922 5.00729 21.2207 5.40513C21.2496 5.81015 21.25 6.32821 21.25 7.07143C21.25 7.81465 21.2496 8.33271 21.2207 8.73773C21.1922 9.13556 21.1391 9.36655 21.0623 9.54261C20.8353 10.0629 20.4201 10.4781 19.8998 10.7051C19.7237 10.7819 19.4927 10.8351 19.0949 10.8635C18.6899 10.8924 18.1718 10.8929 17.4286 10.8929C16.6854 10.8929 16.1673 10.8924 15.7623 10.8635C15.3645 10.8351 15.1335 10.7819 14.9574 10.7051C14.4372 10.4781 14.0219 10.0629 13.7949 9.54261C13.7181 9.36655 13.665 9.13556 13.6366 8.73773C13.6076 8.33271 13.6072 7.81465 13.6072 7.07143Z" stroke="white" stroke-width="1.5"/>
<path d="M13.6072 17.9285C13.6072 17.1853 13.6076 16.6673 13.6366 16.2622C13.665 15.8644 13.7181 15.6334 13.7949 15.4574C14.0219 14.9371 14.4372 14.5218 14.9574 14.2949C15.1335 14.218 15.3645 14.1649 15.7623 14.1365C16.1673 14.1076 16.6854 14.1071 17.4286 14.1071C18.1718 14.1071 18.6899 14.1076 19.0949 14.1365C19.4927 14.1649 19.7237 14.218 19.8998 14.2949C20.4201 14.5218 20.8353 14.9371 21.0623 15.4574C21.1391 15.6334 21.1922 15.8644 21.2207 16.2622C21.2496 16.6673 21.25 17.1853 21.25 17.9285C21.25 18.6718 21.2496 19.1898 21.2207 19.5948C21.1922 19.9927 21.1391 20.2237 21.0623 20.3997C20.8353 20.92 20.4201 21.3352 19.8998 21.5622C19.7237 21.6391 19.4927 21.6922 19.0949 21.7206C18.6899 21.7495 18.1718 21.75 17.4286 21.75C16.6854 21.75 16.1673 21.7495 15.7623 21.7206C15.3645 21.6922 15.1335 21.6391 14.9574 21.5622C14.4372 21.3352 14.0219 20.92 13.7949 20.3997C13.7181 20.2237 13.665 19.9927 13.6366 19.5948C13.6076 19.1898 13.6072 18.6718 13.6072 17.9285Z" stroke="white" stroke-width="1.5"/>
</svg>
