<svg width="16" height="16" viewBox="0 0 16 16" fill="none" xmlns="http://www.w3.org/2000/svg">
<path d="M8.35404 0.145993C8.30759 0.0994302 8.25242 0.0624875 8.19167 0.037281C8.13093 0.0120746 8.06581 -0.000900269 8.00004 -0.000900269C7.93427 -0.000900269 7.86915 0.0120746 7.80841 0.037281C7.74766 0.0624875 7.69248 0.0994302 7.64604 0.145993L5.14604 2.64599C5.05215 2.73988 4.99941 2.86722 4.99941 2.99999C4.99941 3.13277 5.05215 3.26011 5.14604 3.35399C5.23993 3.44788 5.36726 3.50063 5.50004 3.50063C5.63281 3.50063 5.76015 3.44788 5.85404 3.35399L7.50004 1.70699V5.49999C7.50004 5.6326 7.55272 5.75978 7.64649 5.85355C7.74025 5.94732 7.86743 5.99999 8.00004 5.99999C8.13265 5.99999 8.25982 5.94732 8.35359 5.85355C8.44736 5.75978 8.50004 5.6326 8.50004 5.49999V1.70699L10.146 3.35399C10.2399 3.44788 10.3673 3.50063 10.5 3.50063C10.6328 3.50063 10.7602 3.44788 10.854 3.35399C10.9479 3.26011 11.0007 3.13277 11.0007 2.99999C11.0007 2.86722 10.9479 2.73988 10.854 2.64599L8.35404 0.145993ZM0.146039 7.64599C0.099476 7.69244 0.0625333 7.74761 0.0373268 7.80836C0.0121204 7.86911 -0.000854492 7.93423 -0.000854492 7.99999C-0.000854492 8.06576 0.0121204 8.13088 0.0373268 8.19163C0.0625333 8.25237 0.099476 8.30755 0.146039 8.35399L2.64604 10.854C2.73993 10.9479 2.86726 11.0006 3.00004 11.0006C3.13282 11.0006 3.26015 10.9479 3.35404 10.854C3.44793 10.7601 3.50067 10.6328 3.50067 10.5C3.50067 10.3672 3.44793 10.2399 3.35404 10.146L1.70704 8.49999H5.50004C5.63265 8.49999 5.75982 8.44732 5.85359 8.35355C5.94736 8.25978 6.00004 8.1326 6.00004 7.99999C6.00004 7.86738 5.94736 7.74021 5.85359 7.64644C5.75982 7.55267 5.63265 7.49999 5.50004 7.49999H1.70704L3.35404 5.85399C3.44793 5.76011 3.50067 5.63277 3.50067 5.49999C3.50067 5.36722 3.44793 5.23988 3.35404 5.14599C3.26015 5.05211 3.13282 4.99936 3.00004 4.99936C2.86726 4.99936 2.73993 5.05211 2.64604 5.14599L0.146039 7.64599ZM8.00004 16C7.93433 16.0001 7.86925 15.9873 7.80851 15.9622C7.74777 15.9372 7.69256 15.9004 7.64604 15.854L5.14604 13.354C5.05215 13.2601 4.99941 13.1328 4.99941 13C4.99941 12.8672 5.05215 12.7399 5.14604 12.646C5.23993 12.5521 5.36726 12.4994 5.50004 12.4994C5.63281 12.4994 5.76015 12.5521 5.85404 12.646L7.50004 14.293V10.5C7.50004 10.3674 7.55272 10.2402 7.64649 10.1464C7.74025 10.0527 7.86743 9.99999 8.00004 9.99999C8.13265 9.99999 8.25982 10.0527 8.35359 10.1464C8.44736 10.2402 8.50004 10.3674 8.50004 10.5V14.293L10.146 12.646C10.2399 12.5521 10.3673 12.4994 10.5 12.4994C10.6328 12.4994 10.7602 12.5521 10.854 12.646C10.9479 12.7399 11.0007 12.8672 11.0007 13C11.0007 13.1328 10.9479 13.2601 10.854 13.354L8.35404 15.854C8.30752 15.9004 8.25231 15.9372 8.19157 15.9622C8.13083 15.9873 8.06574 16.0001 8.00004 16ZM15.854 8.35399C15.9006 8.30755 15.9375 8.25237 15.9628 8.19163C15.988 8.13088 16.0009 8.06576 16.0009 7.99999C16.0009 7.93423 15.988 7.86911 15.9628 7.80836C15.9375 7.74761 15.9006 7.69244 15.854 7.64599L13.354 5.14599C13.2602 5.05211 13.1328 4.99936 13 4.99936C12.8673 4.99936 12.7399 5.05211 12.646 5.14599C12.5522 5.23988 12.4994 5.36722 12.4994 5.49999C12.4994 5.63277 12.5522 5.76011 12.646 5.85399L14.293 7.49999H10.5C10.3674 7.49999 10.2403 7.55267 10.1465 7.64644C10.0527 7.74021 10 7.86738 10 7.99999C10 8.1326 10.0527 8.25978 10.1465 8.35355C10.2403 8.44732 10.3674 8.49999 10.5 8.49999H14.293L12.646 10.146C12.5522 10.2399 12.4994 10.3672 12.4994 10.5C12.4994 10.6328 12.5522 10.7601 12.646 10.854C12.7399 10.9479 12.8673 11.0006 13 11.0006C13.1328 11.0006 13.2602 10.9479 13.354 10.854L15.854 8.35399Z" fill="white"/>
</svg>
