<svg width="68" height="66" viewBox="0 0 68 66" fill="none" xmlns="http://www.w3.org/2000/svg">
<mask id="mask0_18_6133" style="mask-type:luminance" maskUnits="userSpaceOnUse" x="0" y="0" width="68" height="66">
<path d="M68 0H0V66H68V0Z" fill="white"/>
</mask>
<g mask="url(#mask0_18_6133)">
<path d="M74.5757 -0.362305H67.9867V6.25759H74.5757V-0.362305Z" fill="#E8E8E8"/>
<path d="M74.4657 -0.24076V6.16915H68.0967V-0.24076H74.4657ZM74.6857 -0.461792H67.8767V6.39018H74.6857V-0.461792Z" fill="#ACACAC"/>
<path d="M74.5757 6.47858H67.9867V13.0985H74.5757V6.47858Z" fill="#E8E8E8"/>
<path d="M74.4657 6.58907V12.9879H68.0967V6.58907H74.4657ZM74.6857 6.36804H67.8767V13.209H74.6857V6.36804Z" fill="#ACACAC"/>
<path d="M74.5757 13.3195H67.9867V19.9394H74.5757V13.3195Z" fill="#E8E8E8"/>
<path d="M74.4657 13.43V19.8267H68.0967V13.43H74.4657ZM74.6857 13.209H67.8767V20.0477H74.6857V13.209Z" fill="#ACACAC"/>
<path d="M74.5757 20.1582H67.9867V26.7781H74.5757V20.1582Z" fill="#E8E8E8"/>
<path d="M74.4657 20.2688V26.6787H68.0967V20.2688H74.4657ZM74.6857 20.0477H67.8767V26.8997H74.6857V20.0477Z" fill="#ACACAC"/>
<path d="M74.5757 26.9991H67.9867V33.619H74.5757V26.9991Z" fill="#E8E8E8"/>
<path d="M74.4657 27.1096V33.5085H68.0967V27.1096H74.4657ZM74.6857 26.8886H67.8767V33.7295H74.6857V26.8886Z" fill="#ACACAC"/>
<path d="M74.5757 33.8401H67.9867V40.46H74.5757V33.8401Z" fill="#E8E8E8"/>
<path d="M74.4657 33.9506V40.3494H68.0967V33.9506H74.4657ZM74.6857 33.7296H67.8767V40.5705H74.6857V33.7296Z" fill="#ACACAC"/>
<path d="M74.5757 40.681H67.9867V47.3009H74.5757V40.681Z" fill="#E8E8E8"/>
<path d="M74.4657 40.7915V47.2014H68.0967V40.7915H74.4657ZM74.6857 40.5705H67.8767V47.4225H74.6857V40.5705Z" fill="#ACACAC"/>
<path d="M74.5757 47.5219H67.9867V54.1418H74.5757V47.5219Z" fill="#E8E8E8"/>
<path d="M74.4657 47.6324V54.0423H68.0967V47.6324H74.4657ZM74.6857 47.4114H67.8767V54.2634H74.6857V47.4114Z" fill="#ACACAC"/>
<path d="M74.5757 54.3629H67.9867V60.9827H74.5757V54.3629Z" fill="#E8E8E8"/>
<path d="M74.4657 54.4734V60.87H68.0967V54.4734H74.4657ZM74.6857 54.2523H67.8767V61.091H74.6857V54.2523Z" fill="#ACACAC"/>
<path d="M74.5757 61.2016H67.9867V67.8215H74.5757V61.2016Z" fill="#E8E8E8"/>
<path d="M74.4657 61.3121V67.711H68.0967V61.3121H74.4657ZM74.6857 61.0911H67.8767V67.932H74.6857V61.0911Z" fill="#ACACAC"/>
<path d="M67.7688 -0.362305H61.1798V6.25759H67.7688V-0.362305Z" fill="#C11D37"/>
<path d="M67.6566 -0.24076V6.16915H61.2898V-0.24076H67.6566ZM67.8766 -0.461792H61.0698V6.39018H67.8766V-0.461792Z" fill="#ACACAC"/>
<path d="M67.7688 6.47858H61.1798V13.0985H67.7688V6.47858Z" fill="#E8E8E8"/>
<path d="M67.6566 6.58907V12.9879H61.2898V6.58907H67.6566ZM67.8766 6.36804H61.0698V13.209H67.8766V6.36804Z" fill="#ACACAC"/>
<path d="M67.7688 13.3195H61.1798V19.9394H67.7688V13.3195Z" fill="#C11D37"/>
<path d="M67.6566 13.43V19.8267H61.2898V13.43H67.6566ZM67.8766 13.209H61.0698V20.0477H67.8766V13.209Z" fill="#ACACAC"/>
<path d="M67.7688 20.1582H61.1798V26.7781H67.7688V20.1582Z" fill="#E8E8E8"/>
<path d="M67.6566 20.2688V26.6787H61.2898V20.2688H67.6566ZM67.8766 20.0477H61.0698V26.8997H67.8766V20.0477Z" fill="#ACACAC"/>
<path d="M67.7688 26.9991H61.1798V33.619H67.7688V26.9991Z" fill="#C11D37"/>
<path d="M67.6566 27.1096V33.5085H61.2898V27.1096H67.6566ZM67.8766 26.8886H61.0698V33.7295H67.8766V26.8886Z" fill="#ACACAC"/>
<path d="M67.7688 33.8401H61.1798V40.46H67.7688V33.8401Z" fill="#E8E8E8"/>
<path d="M67.6566 33.9506V40.3494H61.2898V33.9506H67.6566ZM67.8766 33.7296H61.0698V40.5705H67.8766V33.7296Z" fill="#ACACAC"/>
<path d="M67.7688 40.681H61.1798V47.3009H67.7688V40.681Z" fill="#C11D37"/>
<path d="M67.6566 40.7915V47.2014H61.2898V40.7915H67.6566ZM67.8766 40.5705H61.0698V47.4225H67.8766V40.5705Z" fill="#ACACAC"/>
<path d="M67.7688 47.5219H61.1798V54.1418H67.7688V47.5219Z" fill="#E8E8E8"/>
<path d="M67.6566 47.6324V54.0423H61.2898V47.6324H67.6566ZM67.8766 47.4114H61.0698V54.2634H67.8766V47.4114Z" fill="#ACACAC"/>
<path d="M67.7688 54.3629H61.1798V60.9827H67.7688V54.3629Z" fill="#C11D37"/>
<path d="M67.6566 54.4734V60.87H61.2898V54.4734H67.6566ZM67.8766 54.2523H61.0698V61.091H67.8766V54.2523Z" fill="#ACACAC"/>
<path d="M67.7688 61.2016H61.1798V67.8215H67.7688V61.2016Z" fill="#E8E8E8"/>
<path d="M67.6566 61.3121V67.711H61.2898V61.3121H67.6566ZM67.8766 61.0911H61.0698V67.932H67.8766V61.0911Z" fill="#ACACAC"/>
<path d="M60.9599 -0.362305H54.3708V6.25759H60.9599V-0.362305Z" fill="#E8E8E8"/>
<path d="M60.8499 -0.24076V6.16915H54.4699V-0.24076H60.8499ZM61.0699 -0.461792H54.2499V6.39018H61.0699V-0.461792Z" fill="#ACACAC"/>
<path d="M60.9599 6.47858H54.3708V13.0985H60.9599V6.47858Z" fill="#C11D37"/>
<path d="M60.8499 6.58907V12.9879H54.4699V6.58907H60.8499ZM61.0699 6.36804H54.2499V13.209H61.0699V6.36804Z" fill="#ACACAC"/>
<path d="M60.9599 13.3195H54.3708V19.9394H60.9599V13.3195Z" fill="#E8E8E8"/>
<path d="M60.8499 13.43V19.8267H54.4699V13.43H60.8499ZM61.0699 13.209H54.2499V20.0477H61.0699V13.209Z" fill="#ACACAC"/>
<path d="M60.9599 20.1582H54.3708V26.7781H60.9599V20.1582Z" fill="#C11D37"/>
<path d="M60.8499 20.2688V26.6787H54.4699V20.2688H60.8499ZM61.0699 20.0477H54.2499V26.8997H61.0699V20.0477Z" fill="#ACACAC"/>
<path d="M60.9599 26.9991H54.3708V33.619H60.9599V26.9991Z" fill="#E8E8E8"/>
<path d="M60.8499 27.1096V33.5085H54.4699V27.1096H60.8499ZM61.0699 26.8886H54.2499V33.7295H61.0699V26.8886Z" fill="#ACACAC"/>
<path d="M60.9599 33.8401H54.3708V40.46H60.9599V33.8401Z" fill="#C11D37"/>
<path d="M60.8499 33.9506V40.3494H54.4699V33.9506H60.8499ZM61.0699 33.7296H54.2499V40.5705H61.0699V33.7296Z" fill="#ACACAC"/>
<path d="M60.9599 40.681H54.3708V47.3009H60.9599V40.681Z" fill="#E8E8E8"/>
<path d="M60.8499 40.7915V47.2014H54.4699V40.7915H60.8499ZM61.0699 40.5705H54.2499V47.4225H61.0699V40.5705Z" fill="#ACACAC"/>
<path d="M60.9599 47.5219H54.3708V54.1418H60.9599V47.5219Z" fill="#C11D37"/>
<path d="M60.8499 47.6324V54.0423H54.4699V47.6324H60.8499ZM61.0699 47.4114H54.2499V54.2634H61.0699V47.4114Z" fill="#ACACAC"/>
<path d="M60.9599 54.3629H54.3708V60.9827H60.9599V54.3629Z" fill="#E8E8E8"/>
<path d="M60.8499 54.4734V60.87H54.4699V54.4734H60.8499ZM61.0699 54.2523H54.2499V61.091H61.0699V54.2523Z" fill="#ACACAC"/>
<path d="M60.9599 61.2016H54.3708V67.8215H60.9599V61.2016Z" fill="#C11D37"/>
<path d="M60.8499 61.3121V67.711H54.4699V61.3121H60.8499ZM61.0699 61.0911H54.2499V67.932H61.0699V61.0911Z" fill="#ACACAC"/>
<path d="M54.1509 -0.362305H47.5619V6.25759H54.1509V-0.362305Z" fill="#C11D37"/>
<path d="M54.0408 -0.24076V6.16915H47.6608V-0.24076H54.0408ZM54.2608 -0.461792H47.4408V6.39018H54.2608V-0.461792Z" fill="#ACACAC"/>
<path d="M54.1509 6.47858H47.5619V13.0985H54.1509V6.47858Z" fill="#E8E8E8"/>
<path d="M54.0408 6.58907V12.9879H47.6608V6.58907H54.0408ZM54.2608 6.36804H47.4408V13.209H54.2608V6.36804Z" fill="#ACACAC"/>
<path d="M54.1509 13.3195H47.5619V19.9394H54.1509V13.3195Z" fill="#C11D37"/>
<path d="M54.0408 13.43V19.8267H47.6608V13.43H54.0408ZM54.2608 13.209H47.4408V20.0477H54.2608V13.209Z" fill="#ACACAC"/>
<path d="M54.1509 20.1582H47.5619V26.7781H54.1509V20.1582Z" fill="#E8E8E8"/>
<path d="M54.0408 20.2688V26.6787H47.6608V20.2688H54.0408ZM54.2608 20.0477H47.4408V26.8997H54.2608V20.0477Z" fill="#ACACAC"/>
<path d="M54.1509 26.9991H47.5619V33.619H54.1509V26.9991Z" fill="#C11D37"/>
<path d="M54.0408 27.1096V33.5085H47.6608V27.1096H54.0408ZM54.2608 26.8886H47.4408V33.7295H54.2608V26.8886Z" fill="#ACACAC"/>
<path d="M54.1509 33.8401H47.5619V40.46H54.1509V33.8401Z" fill="#E8E8E8"/>
<path d="M54.0408 33.9506V40.3494H47.6608V33.9506H54.0408ZM54.2608 33.7296H47.4408V40.5705H54.2608V33.7296Z" fill="#ACACAC"/>
<path d="M54.1509 40.681H47.5619V47.3009H54.1509V40.681Z" fill="#C11D37"/>
<path d="M54.0408 40.7915V47.2014H47.6608V40.7915H54.0408ZM54.2608 40.5705H47.4408V47.4225H54.2608V40.5705Z" fill="#ACACAC"/>
<path d="M54.1509 47.5219H47.5619V54.1418H54.1509V47.5219Z" fill="#E8E8E8"/>
<path d="M54.0408 47.6324V54.0423H47.6608V47.6324H54.0408ZM54.2608 47.4114H47.4408V54.2634H54.2608V47.4114Z" fill="#ACACAC"/>
<path d="M54.1509 54.3629H47.5619V60.9827H54.1509V54.3629Z" fill="#C11D37"/>
<path d="M54.0408 54.4734V60.87H47.6608V54.4734H54.0408ZM54.2608 54.2523H47.4408V61.091H54.2608V54.2523Z" fill="#ACACAC"/>
<path d="M54.1509 61.2016H47.5619V67.8215H54.1509V61.2016Z" fill="#E8E8E8"/>
<path d="M54.0408 61.3121V67.711H47.6608V61.3121H54.0408ZM54.2608 61.0911H47.4408V67.932H54.2608V61.0911Z" fill="#ACACAC"/>
<path d="M47.3418 -0.362305H40.7528V6.25759H47.3418V-0.362305Z" fill="#E8E8E8"/>
<path d="M47.2318 -0.24076V6.16915H40.8628V-0.24076H47.2318ZM47.4518 -0.461792H40.6428V6.39018H47.4518V-0.461792Z" fill="#ACACAC"/>
<path d="M47.3418 6.47858H40.7528V13.0985H47.3418V6.47858Z" fill="#C11D37"/>
<path d="M47.2318 6.58907V12.9879H40.8628V6.58907H47.2318ZM47.4518 6.36804H40.6428V13.209H47.4518V6.36804Z" fill="#ACACAC"/>
<path d="M47.3418 13.3195H40.7528V19.9394H47.3418V13.3195Z" fill="#E8E8E8"/>
<path d="M47.2318 13.43V19.8267H40.8628V13.43H47.2318ZM47.4518 13.209H40.6428V20.0477H47.4518V13.209Z" fill="#ACACAC"/>
<path d="M47.3418 20.1582H40.7528V26.7781H47.3418V20.1582Z" fill="#C11D37"/>
<path d="M47.2318 20.2688V26.6787H40.8628V20.2688H47.2318ZM47.4518 20.0477H40.6428V26.8997H47.4518V20.0477Z" fill="#ACACAC"/>
<path d="M47.3418 26.9991H40.7528V33.619H47.3418V26.9991Z" fill="#E8E8E8"/>
<path d="M47.2318 27.1096V33.5085H40.8628V27.1096H47.2318ZM47.4518 26.8886H40.6428V33.7295H47.4518V26.8886Z" fill="#ACACAC"/>
<path d="M47.3418 33.8401H40.7528V40.46H47.3418V33.8401Z" fill="#C11D37"/>
<path d="M47.2318 33.9506V40.3494H40.8628V33.9506H47.2318ZM47.4518 33.7296H40.6428V40.5705H47.4518V33.7296Z" fill="#ACACAC"/>
<path d="M47.3418 40.681H40.7528V47.3009H47.3418V40.681Z" fill="#E8E8E8"/>
<path d="M47.2318 40.7915V47.2014H40.8628V40.7915H47.2318ZM47.4518 40.5705H40.6428V47.4225H47.4518V40.5705Z" fill="#ACACAC"/>
<path d="M47.3418 47.5219H40.7528V54.1418H47.3418V47.5219Z" fill="#C11D37"/>
<path d="M47.2318 47.6324V54.0423H40.8628V47.6324H47.2318ZM47.4518 47.4114H40.6428V54.2634H47.4518V47.4114Z" fill="#ACACAC"/>
<path d="M47.3418 54.3629H40.7528V60.9827H47.3418V54.3629Z" fill="#E8E8E8"/>
<path d="M47.2318 54.4734V60.87H40.8628V54.4734H47.2318ZM47.4518 54.2523H40.6428V61.091H47.4518V54.2523Z" fill="#ACACAC"/>
<path d="M47.3418 61.2016H40.7528V67.8215H47.3418V61.2016Z" fill="#C11D37"/>
<path d="M47.2318 61.3121V67.711H40.8628V61.3121H47.2318ZM47.4518 61.0911H40.6428V67.932H47.4518V61.0911Z" fill="#ACACAC"/>
<path d="M40.5328 -0.362305H33.9438V6.25759H40.5328V-0.362305Z" fill="#C11D37"/>
<path d="M40.4229 -0.24076V6.16915H34.0539V-0.24076H40.4229ZM40.6429 -0.461792H33.8339V6.39018H40.6429V-0.461792Z" fill="#ACACAC"/>
<path d="M40.5328 6.47858H33.9438V13.0985H40.5328V6.47858Z" fill="#E8E8E8"/>
<path d="M40.4229 6.58907V12.9879H34.0539V6.58907H40.4229ZM40.6429 6.36804H33.8339V13.209H40.6429V6.36804Z" fill="#ACACAC"/>
<path d="M40.5328 13.3195H33.9438V19.9394H40.5328V13.3195Z" fill="#C11D37"/>
<path d="M40.4229 13.43V19.8267H34.0539V13.43H40.4229ZM40.6429 13.209H33.8339V20.0477H40.6429V13.209Z" fill="#ACACAC"/>
<path d="M40.5328 20.1582H33.9438V26.7781H40.5328V20.1582Z" fill="#E8E8E8"/>
<path d="M40.4229 20.2688V26.6787H34.0539V20.2688H40.4229ZM40.6429 20.0477H33.8339V26.8997H40.6429V20.0477Z" fill="#ACACAC"/>
<path d="M40.5328 26.9991H33.9438V33.619H40.5328V26.9991Z" fill="#C11D37"/>
<path d="M40.4229 27.1096V33.5085H34.0539V27.1096H40.4229ZM40.6429 26.8886H33.8339V33.7295H40.6429V26.8886Z" fill="#ACACAC"/>
<path d="M40.5328 33.8401H33.9438V40.46H40.5328V33.8401Z" fill="#E8E8E8"/>
<path d="M40.4229 33.9506V40.3494H34.0539V33.9506H40.4229ZM40.6429 33.7296H33.8339V40.5705H40.6429V33.7296Z" fill="#ACACAC"/>
<path d="M40.5328 40.681H33.9438V47.3009H40.5328V40.681Z" fill="#E8E8E8"/>
<path d="M40.4229 40.7915V47.2014H34.0539V40.7915H40.4229ZM40.6429 40.5705H33.8339V47.4225H40.6429V40.5705Z" fill="#C11D37"/>
<path d="M40.5328 47.5219H33.9438V54.1418H40.5328V47.5219Z" fill="#E8E8E8"/>
<path d="M40.4229 47.6324V54.0423H34.0539V47.6324H40.4229ZM40.6429 47.4114H33.8339V54.2634H40.6429V47.4114Z" fill="#ACACAC"/>
<path d="M40.5328 54.3629H33.9438V60.9827H40.5328V54.3629Z" fill="#C11D37"/>
<path d="M40.4229 54.4734V60.87H34.0539V54.4734H40.4229ZM40.6429 54.2523H33.8339V61.091H40.6429V54.2523Z" fill="#ACACAC"/>
<path d="M40.5328 61.2016H33.9438V67.8215H40.5328V61.2016Z" fill="#E8E8E8"/>
<path d="M40.4229 61.3121V67.711H34.0539V61.3121H40.4229ZM40.6429 61.0911H33.8339V67.932H40.6429V61.0911Z" fill="#ACACAC"/>
<path d="M33.7239 -0.362305H27.1349V6.25759H33.7239V-0.362305Z" fill="#E8E8E8"/>
<path d="M33.6139 -0.24076V6.16915H27.2449V-0.24076H33.6249M33.8449 -0.461792H27.0249V6.39018H33.8449V-0.461792Z" fill="#ACACAC"/>
<path d="M33.7239 6.47858H27.1349V13.0985H33.7239V6.47858Z" fill="#C11D37"/>
<path d="M33.6139 6.58907V12.9879H27.2449V6.58907H33.6249M33.8449 6.36804H27.0249V13.209H33.8449V6.36804Z" fill="#ACACAC"/>
<path d="M33.7239 13.3195H27.1349V19.9394H33.7239V13.3195Z" fill="#E8E8E8"/>
<path d="M33.6139 13.43V19.8267H27.2449V13.43H33.6249M33.8449 13.209H27.0249V20.0477H33.8449V13.209Z" fill="#ACACAC"/>
<path d="M33.7239 20.1582H27.1349V26.7781H33.7239V20.1582Z" fill="#C11D37"/>
<path d="M33.6139 20.2688V26.6787H27.2449V20.2688H33.6249M33.8449 20.0477H27.0249V26.8997H33.8449V20.0477Z" fill="#ACACAC"/>
<path d="M33.7239 26.9991H27.1349V33.619H33.7239V26.9991Z" fill="#E8E8E8"/>
<path d="M33.6139 27.1096V33.5085H27.2449V27.1096H33.6249M33.8449 26.8886H27.0249V33.7295H33.8449V26.8886Z" fill="#ACACAC"/>
<path d="M33.7239 33.8401H27.1349V40.46H33.7239V33.8401Z" fill="#C11D37"/>
<path d="M33.6139 33.9506V40.3494H27.2449V33.9506H33.6249M33.8449 33.7296H27.0249V40.5705H33.8449V33.7296Z" fill="#ACACAC"/>
<path d="M33.7239 40.681H27.1349V47.3009H33.7239V40.681Z" fill="#E8E8E8"/>
<path d="M33.6139 40.7915V47.2014H27.2449V40.7915H33.6249M33.8449 40.5705H27.0249V47.4225H33.8449V40.5705Z" fill="#ACACAC"/>
<path d="M33.7239 47.5219H27.1349V54.1418H33.7239V47.5219Z" fill="#C11D37"/>
<path d="M33.6139 47.6324V54.0423H27.2449V47.6324H33.6249M33.8449 47.4114H27.0249V54.2634H33.8449V47.4114Z" fill="#ACACAC"/>
<path d="M33.7239 54.3629H27.1349V60.9827H33.7239V54.3629Z" fill="#E8E8E8"/>
<path d="M33.6139 54.4734V60.87H27.2449V54.4734H33.6249M33.8449 54.2523H27.0249V61.091H33.8449V54.2523Z" fill="#ACACAC"/>
<path d="M33.7239 61.2016H27.1349V67.8215H33.7239V61.2016Z" fill="#C11D37"/>
<path d="M33.6139 61.3121V67.711H27.2449V61.3121H33.6249M33.8449 61.0911H27.0249V67.932H33.8449V61.0911Z" fill="#ACACAC"/>
<path d="M26.917 -0.362305H20.328V6.25759H26.917V-0.362305Z" fill="#C11D37"/>
<path d="M26.8048 -0.24076V6.16915H20.438V-0.24076H26.8048ZM27.0248 -0.461792H20.218V6.39018H27.0248V-0.461792Z" fill="#ACACAC"/>
<path d="M26.917 6.47858H20.328V13.0985H26.917V6.47858Z" fill="#E8E8E8"/>
<path d="M26.8048 6.58907V12.9879H20.438V6.58907H26.8048ZM27.0248 6.36804H20.218V13.209H27.0248V6.36804Z" fill="#ACACAC"/>
<path d="M26.917 13.3195H20.328V19.9394H26.917V13.3195Z" fill="#C11D37"/>
<path d="M26.8048 13.43V19.8267H20.438V13.43H26.8048ZM27.0248 13.209H20.218V20.0477H27.0248V13.209Z" fill="#ACACAC"/>
<path d="M26.917 20.1582H20.328V26.7781H26.917V20.1582Z" fill="#E8E8E8"/>
<path d="M26.8048 20.2688V26.6787H20.438V20.2688H26.8048ZM27.0248 20.0477H20.218V26.8997H27.0248V20.0477Z" fill="#ACACAC"/>
<path d="M26.917 26.9991H20.328V33.619H26.917V26.9991Z" fill="#C11D37"/>
<path d="M26.8048 27.1096V33.5085H20.438V27.1096H26.8048ZM27.0248 26.8886H20.218V33.7295H27.0248V26.8886Z" fill="#ACACAC"/>
<path d="M26.917 33.8401H20.328V40.46H26.917V33.8401Z" fill="#E8E8E8"/>
<path d="M26.8048 33.9506V40.3494H20.438V33.9506H26.8048ZM27.0248 33.7296H20.218V40.5705H27.0248V33.7296Z" fill="#ACACAC"/>
<path d="M26.9171 40.681H20.3281V47.3009H26.9171V40.681Z" fill="#C11D37"/>
<path d="M40.589 40.681H34V47.3009H40.589V40.681Z" fill="#C11D37"/>
<path d="M26.8048 40.7915V47.2014H20.438V40.7915H26.8048ZM27.0248 40.5705H20.218V47.4225H27.0248V40.5705Z" fill="#ACACAC"/>
<path d="M26.917 47.5219H20.328V54.1418H26.917V47.5219Z" fill="#E8E8E8"/>
<path d="M26.8048 47.6324V54.0423H20.438V47.6324H26.8048ZM27.0248 47.4114H20.218V54.2634H27.0248V47.4114Z" fill="#ACACAC"/>
<path d="M26.917 54.3629H20.328V60.9827H26.917V54.3629Z" fill="#C11D37"/>
<path d="M26.8048 54.4734V60.87H20.438V54.4734H26.8048ZM27.0248 54.2523H20.218V61.091H27.0248V54.2523Z" fill="#ACACAC"/>
<path d="M26.917 61.2016H20.328V67.8215H26.917V61.2016Z" fill="#E8E8E8"/>
<path d="M26.8048 61.3121V67.711H20.438V61.3121H26.8048ZM27.0248 61.0911H20.218V67.932H27.0248V61.0911Z" fill="#ACACAC"/>
<path d="M20.108 -0.362305H13.519V6.25759H20.108V-0.362305Z" fill="#E8E8E8"/>
<path d="M19.9981 -0.24076V6.16915H13.6291V-0.24076H19.9981ZM20.2181 -0.461792H13.4091V6.39018H20.2181V-0.461792Z" fill="#ACACAC"/>
<path d="M20.108 6.47858H13.519V13.0985H20.108V6.47858Z" fill="#C11D37"/>
<path d="M19.9981 6.58907V12.9879H13.6291V6.58907H19.9981ZM20.2181 6.36804H13.4091V13.209H20.2181V6.36804Z" fill="#ACACAC"/>
<path d="M20.108 13.3195H13.519V19.9394H20.108V13.3195Z" fill="#E8E8E8"/>
<path d="M19.9981 13.43V19.8267H13.6291V13.43H19.9981ZM20.2181 13.209H13.4091V20.0477H20.2181V13.209Z" fill="#ACACAC"/>
<path d="M20.108 20.1582H13.519V26.7781H20.108V20.1582Z" fill="#C11D37"/>
<path d="M19.9981 20.2688V26.6787H13.6291V20.2688H19.9981ZM20.2181 20.0477H13.4091V26.8997H20.2181V20.0477Z" fill="#ACACAC"/>
<path d="M20.108 26.9991H13.519V33.619H20.108V26.9991Z" fill="#E8E8E8"/>
<path d="M19.9981 27.1096V33.5085H13.6291V27.1096H19.9981ZM20.2181 26.8886H13.4091V33.7295H20.2181V26.8886Z" fill="#ACACAC"/>
<path d="M20.108 33.8401H13.519V40.46H20.108V33.8401Z" fill="#C11D37"/>
<path d="M19.9981 33.9506V40.3494H13.6291V33.9506H19.9981ZM20.2181 33.7296H13.4091V40.5705H20.2181V33.7296Z" fill="#ACACAC"/>
<path d="M20.108 40.681H13.519V47.3009H20.108V40.681Z" fill="#E8E8E8"/>
<path d="M19.9981 40.7915V47.2014H13.6291V40.7915H19.9981ZM20.2181 40.5705H13.4091V47.4225H20.2181V40.5705Z" fill="#ACACAC"/>
<path d="M20.108 47.5219H13.519V54.1418H20.108V47.5219Z" fill="#C11D37"/>
<path d="M19.9981 47.6324V54.0423H13.6291V47.6324H19.9981ZM20.2181 47.4114H13.4091V54.2634H20.2181V47.4114Z" fill="#ACACAC"/>
<path d="M20.108 54.3629H13.519V60.9827H20.108V54.3629Z" fill="#E8E8E8"/>
<path d="M19.9981 54.4734V60.87H13.6291V54.4734H19.9981ZM20.2181 54.2523H13.4091V61.091H20.2181V54.2523Z" fill="#ACACAC"/>
<path d="M20.108 61.2016H13.519V67.8215H20.108V61.2016Z" fill="#C11D37"/>
<path d="M19.9981 61.3121V67.711H13.6291V61.3121H19.9981ZM20.2181 61.0911H13.4091V67.932H20.2181V61.0911Z" fill="#ACACAC"/>
<path d="M13.2991 -0.362305H6.71008V6.25759H13.2991V-0.362305Z" fill="#C11D37"/>
<path d="M13.1891 -0.24076V6.16915H6.83108V-0.24076H13.2111M13.4311 -0.461792H6.61108V6.39018H13.4311V-0.461792Z" fill="#ACACAC"/>
<path d="M13.2991 6.47858H6.71008V13.0985H13.2991V6.47858Z" fill="#E8E8E8"/>
<path d="M13.1891 6.58907V12.9879H6.83108V6.58907H13.2111M13.4311 6.36804H6.61108V13.209H13.4311V6.36804Z" fill="#ACACAC"/>
<path d="M13.2991 13.3195H6.71008V19.9394H13.2991V13.3195Z" fill="#C11D37"/>
<path d="M13.1891 13.43V19.8267H6.83108V13.43H13.2111M13.4311 13.209H6.61108V20.0477H13.4311V13.209Z" fill="#ACACAC"/>
<path d="M13.2991 20.1582H6.71008V26.7781H13.2991V20.1582Z" fill="#E8E8E8"/>
<path d="M13.1891 20.2688V26.6787H6.83108V20.2688H13.2111M13.4311 20.0477H6.61108V26.8997H13.4311V20.0477Z" fill="#ACACAC"/>
<path d="M13.2991 26.9991H6.71008V33.619H13.2991V26.9991Z" fill="#C11D37"/>
<path d="M13.1891 27.1096V33.5085H6.83108V27.1096H13.2111M13.4311 26.8886H6.61108V33.7295H13.4311V26.8886Z" fill="#ACACAC"/>
<path d="M13.2991 33.8401H6.71008V40.46H13.2991V33.8401Z" fill="#E8E8E8"/>
<path d="M13.1891 33.9506V40.3494H6.83108V33.9506H13.2111M13.4311 33.7296H6.61108V40.5705H13.4311V33.7296Z" fill="#ACACAC"/>
<path d="M13.2991 40.681H6.71008V47.3009H13.2991V40.681Z" fill="#C11D37"/>
<path d="M13.1891 40.7915V47.2014H6.83108V40.7915H13.2111M13.4311 40.5705H6.61108V47.4225H13.4311V40.5705Z" fill="#ACACAC"/>
<path d="M13.2991 47.5219H6.71008V54.1418H13.2991V47.5219Z" fill="#E8E8E8"/>
<path d="M13.1891 47.6324V54.0423H6.83108V47.6324H13.2111M13.4311 47.4114H6.61108V54.2634H13.4311V47.4114Z" fill="#ACACAC"/>
<path d="M13.2991 54.3629H6.71008V60.9827H13.2991V54.3629Z" fill="#C11D37"/>
<path d="M13.1891 54.4734V60.87H6.83108V54.4734H13.2111M13.4311 54.2523H6.61108V61.091H13.4311V54.2523Z" fill="#ACACAC"/>
<path d="M13.2991 61.2016H6.71008V67.8215H13.2991V61.2016Z" fill="#E8E8E8"/>
<path d="M13.1891 61.3121V67.711H6.83108V61.3121H13.2111M13.4311 61.0911H6.61108V67.932H13.4311V61.0911Z" fill="#ACACAC"/>
<path d="M6.49012 -0.362305H-0.098877V6.25759H6.49012V-0.362305Z" fill="#E8E8E8"/>
<path d="M6.39102 -0.24076V6.16915H0.0110156V-0.24076H6.39102ZM6.61102 -0.461792H-0.208984V6.39018H6.61102V-0.461792Z" fill="#ACACAC"/>
<path d="M6.49012 6.47858H-0.098877V13.0985H6.49012V6.47858Z" fill="#C11D37"/>
<path d="M6.39102 6.58907V12.9879H0.0110156V6.58907H6.39102ZM6.61102 6.36804H-0.208984V13.209H6.61102V6.36804Z" fill="#ACACAC"/>
<path d="M6.49012 13.3195H-0.098877V19.9394H6.49012V13.3195Z" fill="#E8E8E8"/>
<path d="M6.39102 13.43V19.8267H0.0110156V13.43H6.39102ZM6.61102 13.209H-0.208984V20.0477H6.61102V13.209Z" fill="#ACACAC"/>
<path d="M6.49012 20.1582H-0.098877V26.7781H6.49012V20.1582Z" fill="#C11D37"/>
<path d="M6.39102 20.2688V26.6787H0.0110156V20.2688H6.39102ZM6.61102 20.0477H-0.208984V26.8997H6.61102V20.0477Z" fill="#ACACAC"/>
<path d="M6.49012 26.9991H-0.098877V33.619H6.49012V26.9991Z" fill="#E8E8E8"/>
<path d="M6.39102 27.1096V33.5085H0.0110156V27.1096H6.39102ZM6.61102 26.8886H-0.208984V33.7295H6.61102V26.8886Z" fill="#ACACAC"/>
<path d="M6.49012 33.8401H-0.098877V40.46H6.49012V33.8401Z" fill="#C11D37"/>
<path d="M6.39102 33.9506V40.3494H0.0110156V33.9506H6.39102ZM6.61102 33.7296H-0.208984V40.5705H6.61102V33.7296Z" fill="#ACACAC"/>
<path d="M6.49012 40.681H-0.098877V47.3009H6.49012V40.681Z" fill="#E8E8E8"/>
<path d="M6.39102 40.7915V47.2014H0.0110156V40.7915H6.39102ZM6.61102 40.5705H-0.208984V47.4225H6.61102V40.5705Z" fill="#ACACAC"/>
<path d="M6.49012 47.5219H-0.098877V54.1418H6.49012V47.5219Z" fill="#C11D37"/>
<path d="M6.39102 47.6324V54.0423H0.0110156V47.6324H6.39102ZM6.61102 47.4114H-0.208984V54.2634H6.61102V47.4114Z" fill="#ACACAC"/>
<path d="M6.49012 54.3629H-0.098877V60.9827H6.49012V54.3629Z" fill="#E8E8E8"/>
<path d="M6.39102 54.4734V60.87H0.0110156V54.4734H6.39102ZM6.61102 54.2523H-0.208984V61.091H6.61102V54.2523Z" fill="#ACACAC"/>
<path d="M6.49012 61.2016H-0.098877V67.8215H6.49012V61.2016Z" fill="#C11D37"/>
<path d="M6.39102 61.3121V67.711H0.0110156V61.3121H6.39102ZM6.61102 61.0911H-0.208984V67.932H6.61102V61.0911Z" fill="#ACACAC"/>
</g>
</svg>
