<svg width="68" height="66" viewBox="0 0 68 66" fill="none" xmlns="http://www.w3.org/2000/svg">
<mask id="mask0_18_8344" style="mask-type:luminance" maskUnits="userSpaceOnUse" x="0" y="0" width="68" height="66">
<path d="M68 0H0V66H68V0Z" fill="white"/>
</mask>
<g mask="url(#mask0_18_8344)">
<path d="M74.5757 -0.362305H67.9867V6.25759H74.5757V-0.362305Z" fill="#E8E8E8"/>
<path d="M74.4657 -0.24076V6.16915H68.0967V-0.24076H74.4657ZM74.6857 -0.461792H67.8767V6.39018H74.6857V-0.461792Z" fill="#ACACAC"/>
<path d="M74.5757 6.47864H67.9867V13.0985H74.5757V6.47864Z" fill="#E8E8E8"/>
<path d="M74.4657 6.5892V12.9881H68.0967V6.5892H74.4657ZM74.6857 6.36816H67.8767V13.2091H74.6857V6.36816Z" fill="#ACACAC"/>
<path d="M74.5757 13.3196H67.9867V19.9395H74.5757V13.3196Z" fill="#E8E8E8"/>
<path d="M74.4657 13.4301V19.8268H68.0967V13.4301H74.4657ZM74.6857 13.2091H67.8767V20.0478H74.6857V13.2091Z" fill="#ACACAC"/>
<path d="M74.5757 20.1583H67.9867V26.7782H74.5757V20.1583Z" fill="#E8E8E8"/>
<path d="M74.4657 20.2688V26.6787H68.0967V20.2688H74.4657ZM74.6857 20.0477H67.8767V26.8997H74.6857V20.0477Z" fill="#ACACAC"/>
<path d="M74.5757 26.9993H67.9867V33.6192H74.5757V26.9993Z" fill="#E8E8E8"/>
<path d="M74.4657 27.1097V33.5086H68.0967V27.1097H74.4657ZM74.6857 26.8887H67.8767V33.7296H74.6857V26.8887Z" fill="#ACACAC"/>
<path d="M74.5757 33.8401H67.9867V40.46H74.5757V33.8401Z" fill="#E8E8E8"/>
<path d="M74.4657 33.9506V40.3495H68.0967V33.9506H74.4657ZM74.6857 33.7296H67.8767V40.5705H74.6857V33.7296Z" fill="#ACACAC"/>
<path d="M74.5757 40.681H67.9867V47.3009H74.5757V40.681Z" fill="#E8E8E8"/>
<path d="M74.4657 40.7916V47.2015H68.0967V40.7916H74.4657ZM74.6857 40.5706H67.8767V47.4225H74.6857V40.5706Z" fill="#ACACAC"/>
<path d="M74.5757 47.522H67.9867V54.1419H74.5757V47.522Z" fill="#E8E8E8"/>
<path d="M74.4657 47.6325V54.0424H68.0967V47.6325H74.4657ZM74.6857 47.4115H67.8767V54.2635H74.6857V47.4115Z" fill="#ACACAC"/>
<path d="M74.5757 54.3629H67.9867V60.9828H74.5757V54.3629Z" fill="#E8E8E8"/>
<path d="M74.4657 54.4735V60.8701H68.0967V54.4735H74.4657ZM74.6857 54.2524H67.8767V61.0912H74.6857V54.2524Z" fill="#ACACAC"/>
<path d="M74.5757 61.2017H67.9867V67.8215H74.5757V61.2017Z" fill="#E8E8E8"/>
<path d="M74.4657 61.3121V67.711H68.0967V61.3121H74.4657ZM74.6857 61.0911H67.8767V67.932H74.6857V61.0911Z" fill="#ACACAC"/>
<path d="M67.7688 -0.362305H61.1798V6.25759H67.7688V-0.362305Z" fill="#E8E8E8"/>
<path d="M67.6566 -0.24076V6.16915H61.2898V-0.24076H67.6566ZM67.8766 -0.461792H61.0698V6.39018H67.8766V-0.461792Z" fill="#ACACAC"/>
<path d="M67.7688 6.47864H61.1798V13.0985H67.7688V6.47864Z" fill="#E8E8E8"/>
<path d="M67.6566 6.5892V12.9881H61.2898V6.5892H67.6566ZM67.8766 6.36816H61.0698V13.2091H67.8766V6.36816Z" fill="#ACACAC"/>
<path d="M67.7688 13.3196H61.1798V19.9395H67.7688V13.3196Z" fill="#E8E8E8"/>
<path d="M67.6566 13.4301V19.8268H61.2898V13.4301H67.6566ZM67.8766 13.2091H61.0698V20.0478H67.8766V13.2091Z" fill="#ACACAC"/>
<path d="M67.7688 20.1583H61.1798V26.7782H67.7688V20.1583Z" fill="#E8E8E8"/>
<path d="M67.6566 20.2688V26.6787H61.2898V20.2688H67.6566ZM67.8766 20.0477H61.0698V26.8997H67.8766V20.0477Z" fill="#ACACAC"/>
<path d="M67.7688 26.9993H61.1798V33.6192H67.7688V26.9993Z" fill="#E8E8E8"/>
<path d="M67.6566 27.1097V33.5086H61.2898V27.1097H67.6566ZM67.8766 26.8887H61.0698V33.7296H67.8766V26.8887Z" fill="#ACACAC"/>
<path d="M67.7688 33.8401H61.1798V40.46H67.7688V33.8401Z" fill="#E8E8E8"/>
<path d="M67.6566 33.9506V40.3495H61.2898V33.9506H67.6566ZM67.8766 33.7296H61.0698V40.5705H67.8766V33.7296Z" fill="#ACACAC"/>
<path d="M67.7688 40.681H61.1798V47.3009H67.7688V40.681Z" fill="#E8E8E8"/>
<path d="M67.6566 40.7916V47.2015H61.2898V40.7916H67.6566ZM67.8766 40.5706H61.0698V47.4225H67.8766V40.5706Z" fill="#ACACAC"/>
<path d="M67.7688 47.522H61.1798V54.1419H67.7688V47.522Z" fill="#E8E8E8"/>
<path d="M67.6566 47.6325V54.0424H61.2898V47.6325H67.6566ZM67.8766 47.4115H61.0698V54.2635H67.8766V47.4115Z" fill="#ACACAC"/>
<path d="M67.7688 54.3629H61.1798V60.9828H67.7688V54.3629Z" fill="#E8E8E8"/>
<path d="M67.6566 54.4735V60.8701H61.2898V54.4735H67.6566ZM67.8766 54.2524H61.0698V61.0912H67.8766V54.2524Z" fill="#ACACAC"/>
<path d="M67.7688 61.2017H61.1798V67.8215H67.7688V61.2017Z" fill="#E8E8E8"/>
<path d="M67.6566 61.3121V67.711H61.2898V61.3121H67.6566ZM67.8766 61.0911H61.0698V67.932H67.8766V61.0911Z" fill="#ACACAC"/>
<path d="M60.9599 -0.362305H54.3708V6.25759H60.9599V-0.362305Z" fill="#E8E8E8"/>
<path d="M60.8499 -0.24076V6.16915H54.4699V-0.24076H60.8499ZM61.0699 -0.461792H54.2499V6.39018H61.0699V-0.461792Z" fill="#ACACAC"/>
<path d="M60.9599 6.47864H54.3708V13.0985H60.9599V6.47864Z" fill="#E8E8E8"/>
<path d="M60.8499 6.5892V12.9881H54.4699V6.5892H60.8499ZM61.0699 6.36816H54.2499V13.2091H61.0699V6.36816Z" fill="#ACACAC"/>
<path d="M60.9599 13.3196H54.3708V19.9395H60.9599V13.3196Z" fill="#E8E8E8"/>
<path d="M60.8499 13.4301V19.8268H54.4699V13.4301H60.8499ZM61.0699 13.2091H54.2499V20.0478H61.0699V13.2091Z" fill="#ACACAC"/>
<path d="M60.9599 20.1583H54.3708V26.7782H60.9599V20.1583Z" fill="#E8E8E8"/>
<path d="M60.8499 20.2688V26.6787H54.4699V20.2688H60.8499ZM61.0699 20.0477H54.2499V26.8997H61.0699V20.0477Z" fill="#ACACAC"/>
<path d="M60.9599 26.9993H54.3708V33.6192H60.9599V26.9993Z" fill="#E8E8E8"/>
<path d="M60.8499 27.1097V33.5086H54.4699V27.1097H60.8499ZM61.0699 26.8887H54.2499V33.7296H61.0699V26.8887Z" fill="#ACACAC"/>
<path d="M60.9599 33.8401H54.3708V40.46H60.9599V33.8401Z" fill="#E8E8E8"/>
<path d="M60.8499 33.9506V40.3495H54.4699V33.9506H60.8499ZM61.0699 33.7296H54.2499V40.5705H61.0699V33.7296Z" fill="#ACACAC"/>
<path d="M60.9599 40.681H54.3708V47.3009H60.9599V40.681Z" fill="#E8E8E8"/>
<path d="M60.8499 40.7916V47.2015H54.4699V40.7916H60.8499ZM61.0699 40.5706H54.2499V47.4225H61.0699V40.5706Z" fill="#ACACAC"/>
<path d="M60.9599 47.522H54.3708V54.1419H60.9599V47.522Z" fill="#E8E8E8"/>
<path d="M60.8499 47.6325V54.0424H54.4699V47.6325H60.8499ZM61.0699 47.4115H54.2499V54.2635H61.0699V47.4115Z" fill="#ACACAC"/>
<path d="M60.9599 54.3629H54.3708V60.9828H60.9599V54.3629Z" fill="#E8E8E8"/>
<path d="M60.8499 54.4735V60.8701H54.4699V54.4735H60.8499ZM61.0699 54.2524H54.2499V61.0912H61.0699V54.2524Z" fill="#ACACAC"/>
<path d="M60.9599 61.2017H54.3708V67.8215H60.9599V61.2017Z" fill="#E8E8E8"/>
<path d="M60.8499 61.3121V67.711H54.4699V61.3121H60.8499ZM61.0699 61.0911H54.2499V67.932H61.0699V61.0911Z" fill="#ACACAC"/>
<path d="M54.1509 -0.362305H47.5619V6.25759H54.1509V-0.362305Z" fill="#E8E8E8"/>
<path d="M54.0408 -0.24076V6.16915H47.6608V-0.24076H54.0408ZM54.2608 -0.461792H47.4408V6.39018H54.2608V-0.461792Z" fill="#ACACAC"/>
<path d="M54.1509 6.47864H47.5619V13.0985H54.1509V6.47864Z" fill="#E8E8E8"/>
<path d="M54.0408 6.5892V12.9881H47.6608V6.5892H54.0408ZM54.2608 6.36816H47.4408V13.2091H54.2608V6.36816Z" fill="#ACACAC"/>
<path d="M54.1509 13.3196H47.5619V19.9395H54.1509V13.3196Z" fill="#E8E8E8"/>
<path d="M54.0408 13.4301V19.8268H47.6608V13.4301H54.0408ZM54.2608 13.2091H47.4408V20.0478H54.2608V13.2091Z" fill="#ACACAC"/>
<path d="M54.1509 20.1583H47.5619V26.7782H54.1509V20.1583Z" fill="#E8E8E8"/>
<path d="M54.0408 20.2688V26.6787H47.6608V20.2688H54.0408ZM54.2608 20.0477H47.4408V26.8997H54.2608V20.0477Z" fill="#ACACAC"/>
<path d="M54.1509 26.9993H47.5619V33.6192H54.1509V26.9993Z" fill="#E8E8E8"/>
<path d="M54.0408 27.1097V33.5086H47.6608V27.1097H54.0408ZM54.2608 26.8887H47.4408V33.7296H54.2608V26.8887Z" fill="#ACACAC"/>
<path d="M54.1509 33.8401H47.5619V40.46H54.1509V33.8401Z" fill="#E8E8E8"/>
<path d="M54.0408 33.9506V40.3495H47.6608V33.9506H54.0408ZM54.2608 33.7296H47.4408V40.5705H54.2608V33.7296Z" fill="#ACACAC"/>
<path d="M54.1509 40.681H47.5619V47.3009H54.1509V40.681Z" fill="#E8E8E8"/>
<path d="M54.0408 40.7916V47.2015H47.6608V40.7916H54.0408ZM54.2608 40.5706H47.4408V47.4225H54.2608V40.5706Z" fill="#ACACAC"/>
<path d="M54.1509 47.522H47.5619V54.1419H54.1509V47.522Z" fill="#E8E8E8"/>
<path d="M54.0408 47.6325V54.0424H47.6608V47.6325H54.0408ZM54.2608 47.4115H47.4408V54.2635H54.2608V47.4115Z" fill="#ACACAC"/>
<path d="M54.1509 54.3629H47.5619V60.9828H54.1509V54.3629Z" fill="#E8E8E8"/>
<path d="M54.0408 54.4735V60.8701H47.6608V54.4735H54.0408ZM54.2608 54.2524H47.4408V61.0912H54.2608V54.2524Z" fill="#ACACAC"/>
<path d="M54.1509 61.2017H47.5619V67.8215H54.1509V61.2017Z" fill="#E8E8E8"/>
<path d="M54.0408 61.3121V67.711H47.6608V61.3121H54.0408ZM54.2608 61.0911H47.4408V67.932H54.2608V61.0911Z" fill="#ACACAC"/>
<path d="M47.3418 -0.362305H40.7528V6.25759H47.3418V-0.362305Z" fill="#E8E8E8"/>
<path d="M47.2318 -0.24076V6.16915H40.8628V-0.24076H47.2318ZM47.4518 -0.461792H40.6428V6.39018H47.4518V-0.461792Z" fill="#ACACAC"/>
<path d="M47.3418 6.47864H40.7528V13.0985H47.3418V6.47864Z" fill="#E8E8E8"/>
<path d="M47.2318 6.5892V12.9881H40.8628V6.5892H47.2318ZM47.4518 6.36816H40.6428V13.2091H47.4518V6.36816Z" fill="#ACACAC"/>
<path d="M47.3418 13.3196H40.7528V19.9395H47.3418V13.3196Z" fill="#E8E8E8"/>
<path d="M47.2318 13.4301V19.8268H40.8628V13.4301H47.2318ZM47.4518 13.2091H40.6428V20.0478H47.4518V13.2091Z" fill="#ACACAC"/>
<path d="M47.3418 20.1583H40.7528V26.7782H47.3418V20.1583Z" fill="#E8E8E8"/>
<path d="M47.2318 20.2688V26.6787H40.8628V20.2688H47.2318ZM47.4518 20.0477H40.6428V26.8997H47.4518V20.0477Z" fill="#ACACAC"/>
<path d="M47.3418 26.9993H40.7528V33.6192H47.3418V26.9993Z" fill="#E8E8E8"/>
<path d="M47.2318 27.1097V33.5086H40.8628V27.1097H47.2318ZM47.4518 26.8887H40.6428V33.7296H47.4518V26.8887Z" fill="#ACACAC"/>
<path d="M47.3418 33.8401H40.7528V40.46H47.3418V33.8401Z" fill="#E8E8E8"/>
<path d="M47.2318 33.9506V40.3495H40.8628V33.9506H47.2318ZM47.4518 33.7296H40.6428V40.5705H47.4518V33.7296Z" fill="#ACACAC"/>
<path d="M47.3418 40.681H40.7528V47.3009H47.3418V40.681Z" fill="#E8E8E8"/>
<path d="M47.2318 40.7916V47.2015H40.8628V40.7916H47.2318ZM47.4518 40.5706H40.6428V47.4225H47.4518V40.5706Z" fill="#ACACAC"/>
<path d="M47.3418 47.522H40.7528V54.1419H47.3418V47.522Z" fill="#E8E8E8"/>
<path d="M47.2318 47.6325V54.0424H40.8628V47.6325H47.2318ZM47.4518 47.4115H40.6428V54.2635H47.4518V47.4115Z" fill="#ACACAC"/>
<path d="M47.3418 54.3629H40.7528V60.9828H47.3418V54.3629Z" fill="#E8E8E8"/>
<path d="M47.2318 54.4735V60.8701H40.8628V54.4735H47.2318ZM47.4518 54.2524H40.6428V61.0912H47.4518V54.2524Z" fill="#ACACAC"/>
<path d="M47.3418 61.2017H40.7528V67.8215H47.3418V61.2017Z" fill="#E8E8E8"/>
<path d="M47.2318 61.3121V67.711H40.8628V61.3121H47.2318ZM47.4518 61.0911H40.6428V67.932H47.4518V61.0911Z" fill="#ACACAC"/>
<path d="M40.5328 -0.362305H33.9438V6.25759H40.5328V-0.362305Z" fill="#E8E8E8"/>
<path d="M40.4229 -0.24076V6.16915H34.0539V-0.24076H40.4229ZM40.6429 -0.461792H33.8339V6.39018H40.6429V-0.461792Z" fill="#ACACAC"/>
<path d="M40.5328 6.47864H33.9438V13.0985H40.5328V6.47864Z" fill="#E8E8E8"/>
<path d="M40.4229 6.5892V12.9881H34.0539V6.5892H40.4229ZM40.6429 6.36816H33.8339V13.2091H40.6429V6.36816Z" fill="#ACACAC"/>
<path d="M40.5328 13.3196H33.9438V19.9395H40.5328V13.3196Z" fill="#E8E8E8"/>
<path d="M40.4229 13.4301V19.8268H34.0539V13.4301H40.4229ZM40.6429 13.2091H33.8339V20.0478H40.6429V13.2091Z" fill="#ACACAC"/>
<path d="M40.5328 20.1583H33.9438V26.7782H40.5328V20.1583Z" fill="#E8E8E8"/>
<path d="M40.4229 20.2688V26.6787H34.0539V20.2688H40.4229ZM40.6429 20.0477H33.8339V26.8997H40.6429V20.0477Z" fill="#ACACAC"/>
<path d="M40.5328 26.9993H33.9438V33.6192H40.5328V26.9993Z" fill="#E8E8E8"/>
<path d="M40.4229 27.1097V33.5086H34.0539V27.1097H40.4229ZM40.6429 26.8887H33.8339V33.7296H40.6429V26.8887Z" fill="#ACACAC"/>
<path d="M40.5328 33.8401H33.9438V40.46H40.5328V33.8401Z" fill="#E8E8E8"/>
<path d="M40.4229 33.9506V40.3495H34.0539V33.9506H40.4229ZM40.6429 33.7296H33.8339V40.5705H40.6429V33.7296Z" fill="#ACACAC"/>
<path d="M40.5328 40.681H33.9438V47.3009H40.5328V40.681Z" fill="#E8E8E8"/>
<path d="M40.4229 40.7916V47.2015H34.0539V40.7916H40.4229ZM40.6429 40.5706H33.8339V47.4225H40.6429V40.5706Z" fill="#ACACAC"/>
<path d="M40.5328 47.522H33.9438V54.1419H40.5328V47.522Z" fill="#E8E8E8"/>
<path d="M40.4229 47.6325V54.0424H34.0539V47.6325H40.4229ZM40.6429 47.4115H33.8339V54.2635H40.6429V47.4115Z" fill="#ACACAC"/>
<path d="M40.5328 54.3629H33.9438V60.9828H40.5328V54.3629Z" fill="#E8E8E8"/>
<path d="M40.4229 54.4735V60.8701H34.0539V54.4735H40.4229ZM40.6429 54.2524H33.8339V61.0912H40.6429V54.2524Z" fill="#ACACAC"/>
<path d="M40.5328 61.2017H33.9438V67.8215H40.5328V61.2017Z" fill="#E8E8E8"/>
<path d="M40.4229 61.3121V67.711H34.0539V61.3121H40.4229ZM40.6429 61.0911H33.8339V67.932H40.6429V61.0911Z" fill="#ACACAC"/>
<path d="M33.7239 -0.362305H27.1349V6.25759H33.7239V-0.362305Z" fill="#E8E8E8"/>
<path d="M33.6139 -0.24076V6.16915H27.2449V-0.24076H33.6249M33.8449 -0.461792H27.0249V6.39018H33.8449V-0.461792Z" fill="#ACACAC"/>
<path d="M33.7239 6.47864H27.1349V13.0985H33.7239V6.47864Z" fill="#E8E8E8"/>
<path d="M33.6139 6.5892V12.9881H27.2449V6.5892H33.6249M33.8449 6.36816H27.0249V13.2091H33.8449V6.36816Z" fill="#ACACAC"/>
<path d="M33.7239 13.3196H27.1349V19.9395H33.7239V13.3196Z" fill="#E8E8E8"/>
<path d="M33.6139 13.4301V19.8268H27.2449V13.4301H33.6249M33.8449 13.2091H27.0249V20.0478H33.8449V13.2091Z" fill="#ACACAC"/>
<path d="M33.7239 20.1583H27.1349V26.7782H33.7239V20.1583Z" fill="#E8E8E8"/>
<path d="M33.6139 20.2688V26.6787H27.2449V20.2688H33.6249M33.8449 20.0477H27.0249V26.8997H33.8449V20.0477Z" fill="#ACACAC"/>
<path d="M33.7239 26.9993H27.1349V33.6192H33.7239V26.9993Z" fill="#E8E8E8"/>
<path d="M33.6139 27.1097V33.5086H27.2449V27.1097H33.6249M33.8449 26.8887H27.0249V33.7296H33.8449V26.8887Z" fill="#ACACAC"/>
<path d="M33.7239 33.8401H27.1349V40.46H33.7239V33.8401Z" fill="#E8E8E8"/>
<path d="M33.6139 33.9506V40.3495H27.2449V33.9506H33.6249M33.8449 33.7296H27.0249V40.5705H33.8449V33.7296Z" fill="#ACACAC"/>
<path d="M33.7239 40.681H27.1349V47.3009H33.7239V40.681Z" fill="#E8E8E8"/>
<path d="M33.6139 40.7916V47.2015H27.2449V40.7916H33.6249M33.8449 40.5706H27.0249V47.4225H33.8449V40.5706Z" fill="#ACACAC"/>
<path d="M33.7239 47.522H27.1349V54.1419H33.7239V47.522Z" fill="#E8E8E8"/>
<path d="M33.6139 47.6325V54.0424H27.2449V47.6325H33.6249M33.8449 47.4115H27.0249V54.2635H33.8449V47.4115Z" fill="#ACACAC"/>
<path d="M33.7239 54.3629H27.1349V60.9828H33.7239V54.3629Z" fill="#E8E8E8"/>
<path d="M33.6139 54.4735V60.8701H27.2449V54.4735H33.6249M33.8449 54.2524H27.0249V61.0912H33.8449V54.2524Z" fill="#ACACAC"/>
<path d="M33.7239 61.2017H27.1349V67.8215H33.7239V61.2017Z" fill="#E8E8E8"/>
<path d="M33.6139 61.3121V67.711H27.2449V61.3121H33.6249M33.8449 61.0911H27.0249V67.932H33.8449V61.0911Z" fill="#ACACAC"/>
<path d="M26.917 -0.362305H20.328V6.25759H26.917V-0.362305Z" fill="#E8E8E8"/>
<path d="M26.8048 -0.24076V6.16915H20.438V-0.24076H26.8048ZM27.0248 -0.461792H20.218V6.39018H27.0248V-0.461792Z" fill="#ACACAC"/>
<path d="M26.917 6.47864H20.328V13.0985H26.917V6.47864Z" fill="#E8E8E8"/>
<path d="M26.8048 6.5892V12.9881H20.438V6.5892H26.8048ZM27.0248 6.36816H20.218V13.2091H27.0248V6.36816Z" fill="#ACACAC"/>
<path d="M26.917 13.3196H20.328V19.9395H26.917V13.3196Z" fill="#E8E8E8"/>
<path d="M26.8048 13.4301V19.8268H20.438V13.4301H26.8048ZM27.0248 13.2091H20.218V20.0478H27.0248V13.2091Z" fill="#ACACAC"/>
<path d="M26.917 20.1583H20.328V26.7782H26.917V20.1583Z" fill="#E8E8E8"/>
<path d="M26.8048 20.2688V26.6787H20.438V20.2688H26.8048ZM27.0248 20.0477H20.218V26.8997H27.0248V20.0477Z" fill="#ACACAC"/>
<path d="M26.917 26.9993H20.328V33.6192H26.917V26.9993Z" fill="#E8E8E8"/>
<path d="M26.8048 27.1097V33.5086H20.438V27.1097H26.8048ZM27.0248 26.8887H20.218V33.7296H27.0248V26.8887Z" fill="#ACACAC"/>
<path d="M26.917 33.8401H20.328V40.46H26.917V33.8401Z" fill="#E8E8E8"/>
<path d="M26.8048 33.9506V40.3495H20.438V33.9506H26.8048ZM27.0248 33.7296H20.218V40.5705H27.0248V33.7296Z" fill="#ACACAC"/>
<path d="M26.917 40.681H20.328V47.3009H26.917V40.681Z" fill="#E8E8E8"/>
<path d="M26.8048 40.7916V47.2015H20.438V40.7916H26.8048ZM27.0248 40.5706H20.218V47.4225H27.0248V40.5706Z" fill="#ACACAC"/>
<path d="M26.917 47.522H20.328V54.1419H26.917V47.522Z" fill="#E8E8E8"/>
<path d="M26.8048 47.6325V54.0424H20.438V47.6325H26.8048ZM27.0248 47.4115H20.218V54.2635H27.0248V47.4115Z" fill="#ACACAC"/>
<path d="M26.917 54.3629H20.328V60.9828H26.917V54.3629Z" fill="#E8E8E8"/>
<path d="M26.8048 54.4735V60.8701H20.438V54.4735H26.8048ZM27.0248 54.2524H20.218V61.0912H27.0248V54.2524Z" fill="#ACACAC"/>
<path d="M26.917 61.2017H20.328V67.8215H26.917V61.2017Z" fill="#E8E8E8"/>
<path d="M26.8048 61.3121V67.711H20.438V61.3121H26.8048ZM27.0248 61.0911H20.218V67.932H27.0248V61.0911Z" fill="#ACACAC"/>
<path d="M20.108 -0.362305H13.519V6.25759H20.108V-0.362305Z" fill="#E8E8E8"/>
<path d="M19.9981 -0.24076V6.16915H13.6291V-0.24076H19.9981ZM20.2181 -0.461792H13.4091V6.39018H20.2181V-0.461792Z" fill="#ACACAC"/>
<path d="M20.108 6.47864H13.519V13.0985H20.108V6.47864Z" fill="#E8E8E8"/>
<path d="M19.9981 6.5892V12.9881H13.6291V6.5892H19.9981ZM20.2181 6.36816H13.4091V13.2091H20.2181V6.36816Z" fill="#ACACAC"/>
<path d="M20.108 13.3196H13.519V19.9395H20.108V13.3196Z" fill="#E8E8E8"/>
<path d="M19.9981 13.4301V19.8268H13.6291V13.4301H19.9981ZM20.2181 13.2091H13.4091V20.0478H20.2181V13.2091Z" fill="#ACACAC"/>
<path d="M20.108 20.1583H13.519V26.7782H20.108V20.1583Z" fill="#E8E8E8"/>
<path d="M19.9981 20.2688V26.6787H13.6291V20.2688H19.9981ZM20.2181 20.0477H13.4091V26.8997H20.2181V20.0477Z" fill="#ACACAC"/>
<path d="M20.108 26.9993H13.519V33.6192H20.108V26.9993Z" fill="#E8E8E8"/>
<path d="M19.9981 27.1097V33.5086H13.6291V27.1097H19.9981ZM20.2181 26.8887H13.4091V33.7296H20.2181V26.8887Z" fill="#ACACAC"/>
<path d="M20.108 33.8401H13.519V40.46H20.108V33.8401Z" fill="#E8E8E8"/>
<path d="M19.9981 33.9506V40.3495H13.6291V33.9506H19.9981ZM20.2181 33.7296H13.4091V40.5705H20.2181V33.7296Z" fill="#ACACAC"/>
<path d="M20.108 40.681H13.519V47.3009H20.108V40.681Z" fill="#E8E8E8"/>
<path d="M19.9981 40.7916V47.2015H13.6291V40.7916H19.9981ZM20.2181 40.5706H13.4091V47.4225H20.2181V40.5706Z" fill="#ACACAC"/>
<path d="M20.108 47.522H13.519V54.1419H20.108V47.522Z" fill="#E8E8E8"/>
<path d="M19.9981 47.6325V54.0424H13.6291V47.6325H19.9981ZM20.2181 47.4115H13.4091V54.2635H20.2181V47.4115Z" fill="#ACACAC"/>
<path d="M20.108 54.3629H13.519V60.9828H20.108V54.3629Z" fill="#E8E8E8"/>
<path d="M19.9981 54.4735V60.8701H13.6291V54.4735H19.9981ZM20.2181 54.2524H13.4091V61.0912H20.2181V54.2524Z" fill="#ACACAC"/>
<path d="M20.108 61.2017H13.519V67.8215H20.108V61.2017Z" fill="#E8E8E8"/>
<path d="M19.9981 61.3121V67.711H13.6291V61.3121H19.9981ZM20.2181 61.0911H13.4091V67.932H20.2181V61.0911Z" fill="#ACACAC"/>
<path d="M13.2991 -0.362305H6.71008V6.25759H13.2991V-0.362305Z" fill="#E8E8E8"/>
<path d="M13.1891 -0.24076V6.16915H6.83108V-0.24076H13.2111M13.4311 -0.461792H6.61108V6.39018H13.4311V-0.461792Z" fill="#ACACAC"/>
<path d="M13.2991 6.47864H6.71008V13.0985H13.2991V6.47864Z" fill="#E8E8E8"/>
<path d="M13.1891 6.5892V12.9881H6.83108V6.5892H13.2111M13.4311 6.36816H6.61108V13.2091H13.4311V6.36816Z" fill="#ACACAC"/>
<path d="M13.2991 13.3196H6.71008V19.9395H13.2991V13.3196Z" fill="#E8E8E8"/>
<path d="M13.1891 13.4301V19.8268H6.83108V13.4301H13.2111M13.4311 13.2091H6.61108V20.0478H13.4311V13.2091Z" fill="#ACACAC"/>
<path d="M13.2991 20.1583H6.71008V26.7782H13.2991V20.1583Z" fill="#E8E8E8"/>
<path d="M13.1891 20.2688V26.6787H6.83108V20.2688H13.2111M13.4311 20.0477H6.61108V26.8997H13.4311V20.0477Z" fill="#ACACAC"/>
<path d="M13.2991 26.9993H6.71008V33.6192H13.2991V26.9993Z" fill="#E8E8E8"/>
<path d="M13.1891 27.1097V33.5086H6.83108V27.1097H13.2111M13.4311 26.8887H6.61108V33.7296H13.4311V26.8887Z" fill="#ACACAC"/>
<path d="M13.2991 33.8401H6.71008V40.46H13.2991V33.8401Z" fill="#E8E8E8"/>
<path d="M13.1891 33.9506V40.3495H6.83108V33.9506H13.2111M13.4311 33.7296H6.61108V40.5705H13.4311V33.7296Z" fill="#ACACAC"/>
<path d="M13.2991 40.681H6.71008V47.3009H13.2991V40.681Z" fill="#E8E8E8"/>
<path d="M13.1891 40.7916V47.2015H6.83108V40.7916H13.2111M13.4311 40.5706H6.61108V47.4225H13.4311V40.5706Z" fill="#ACACAC"/>
<path d="M13.2991 47.522H6.71008V54.1419H13.2991V47.522Z" fill="#E8E8E8"/>
<path d="M13.1891 47.6325V54.0424H6.83108V47.6325H13.2111M13.4311 47.4115H6.61108V54.2635H13.4311V47.4115Z" fill="#ACACAC"/>
<path d="M13.2991 54.3629H6.71008V60.9828H13.2991V54.3629Z" fill="#E8E8E8"/>
<path d="M13.1891 54.4735V60.8701H6.83108V54.4735H13.2111M13.4311 54.2524H6.61108V61.0912H13.4311V54.2524Z" fill="#ACACAC"/>
<path d="M13.2991 61.2017H6.71008V67.8215H13.2991V61.2017Z" fill="#E8E8E8"/>
<path d="M13.1891 61.3121V67.711H6.83108V61.3121H13.2111M13.4311 61.0911H6.61108V67.932H13.4311V61.0911Z" fill="#ACACAC"/>
<path d="M6.49012 -0.362305H-0.098877V6.25759H6.49012V-0.362305Z" fill="#E8E8E8"/>
<path d="M6.39102 -0.24076V6.16915H0.0110156V-0.24076H6.39102ZM6.61102 -0.461792H-0.208984V6.39018H6.61102V-0.461792Z" fill="#ACACAC"/>
<path d="M6.49012 6.47864H-0.098877V13.0985H6.49012V6.47864Z" fill="#E8E8E8"/>
<path d="M6.39102 6.5892V12.9881H0.0110156V6.5892H6.39102ZM6.61102 6.36816H-0.208984V13.2091H6.61102V6.36816Z" fill="#ACACAC"/>
<path d="M6.49012 13.3196H-0.098877V19.9395H6.49012V13.3196Z" fill="#E8E8E8"/>
<path d="M6.39102 13.4301V19.8268H0.0110156V13.4301H6.39102ZM6.61102 13.2091H-0.208984V20.0478H6.61102V13.2091Z" fill="#ACACAC"/>
<path d="M6.49012 20.1583H-0.098877V26.7782H6.49012V20.1583Z" fill="#E8E8E8"/>
<path d="M6.39102 20.2688V26.6787H0.0110156V20.2688H6.39102ZM6.61102 20.0477H-0.208984V26.8997H6.61102V20.0477Z" fill="#ACACAC"/>
<path d="M6.49012 26.9993H-0.098877V33.6192H6.49012V26.9993Z" fill="#E8E8E8"/>
<path d="M6.39102 27.1097V33.5086H0.0110156V27.1097H6.39102ZM6.61102 26.8887H-0.208984V33.7296H6.61102V26.8887Z" fill="#ACACAC"/>
<path d="M6.49012 33.8401H-0.098877V40.46H6.49012V33.8401Z" fill="#E8E8E8"/>
<path d="M6.39102 33.9506V40.3495H0.0110156V33.9506H6.39102ZM6.61102 33.7296H-0.208984V40.5705H6.61102V33.7296Z" fill="#ACACAC"/>
<path d="M6.49012 40.681H-0.098877V47.3009H6.49012V40.681Z" fill="#E8E8E8"/>
<path d="M6.39102 40.7916V47.2015H0.0110156V40.7916H6.39102ZM6.61102 40.5706H-0.208984V47.4225H6.61102V40.5706Z" fill="#ACACAC"/>
<path d="M6.49012 47.522H-0.098877V54.1419H6.49012V47.522Z" fill="#E8E8E8"/>
<path d="M6.39102 47.6325V54.0424H0.0110156V47.6325H6.39102ZM6.61102 47.4115H-0.208984V54.2635H6.61102V47.4115Z" fill="#ACACAC"/>
<path d="M6.49012 54.3629H-0.098877V60.9828H6.49012V54.3629Z" fill="#E8E8E8"/>
<path d="M6.39102 54.4735V60.8701H0.0110156V54.4735H6.39102ZM6.61102 54.2524H-0.208984V61.0912H6.61102V54.2524Z" fill="#ACACAC"/>
<path d="M6.49012 61.2017H-0.098877V67.8215H6.49012V61.2017Z" fill="#E8E8E8"/>
<path d="M6.39102 61.3121V67.711H0.0110156V61.3121H6.39102ZM6.61102 61.0911H-0.208984V67.932H6.61102V61.0911Z" fill="#ACACAC"/>
</g>
</svg>
